<mxfile host="65bd71144e">
    <diagram id="OdwIXGr5G3RpU7ynIjTm" name="Page-1">
        <mxGraphModel dx="2284" dy="1180" grid="1" gridSize="10" guides="1" tooltips="1" connect="1" arrows="1" fold="1" page="1" pageScale="1" pageWidth="1600" pageHeight="900" math="0" shadow="0">
            <root>
                <mxCell id="0"/>
                <mxCell id="1" parent="0"/>
                <mxCell id="tgNo1-seNx9lQ3xTW1xl-1" value="Sprite" style="swimlane;fontStyle=0;childLayout=stackLayout;horizontal=1;startSize=30;horizontalStack=0;resizeParent=1;resizeParentMax=0;resizeLast=0;collapsible=1;marginBottom=0;whiteSpace=wrap;html=1;" parent="1" vertex="1">
                    <mxGeometry width="140" height="210" as="geometry"/>
                </mxCell>
                <mxCell id="tgNo1-seNx9lQ3xTW1xl-2" value="translation: vec2" style="text;strokeColor=none;fillColor=none;align=left;verticalAlign=middle;spacingLeft=4;spacingRight=4;overflow=hidden;points=[[0,0.5],[1,0.5]];portConstraint=eastwest;rotatable=0;whiteSpace=wrap;html=1;" parent="tgNo1-seNx9lQ3xTW1xl-1" vertex="1">
                    <mxGeometry y="30" width="140" height="30" as="geometry"/>
                </mxCell>
                <mxCell id="tgNo1-seNx9lQ3xTW1xl-3" value="rotation: float" style="text;strokeColor=none;fillColor=none;align=left;verticalAlign=middle;spacingLeft=4;spacingRight=4;overflow=hidden;points=[[0,0.5],[1,0.5]];portConstraint=eastwest;rotatable=0;whiteSpace=wrap;html=1;" parent="tgNo1-seNx9lQ3xTW1xl-1" vertex="1">
                    <mxGeometry y="60" width="140" height="30" as="geometry"/>
                </mxCell>
                <mxCell id="tgNo1-seNx9lQ3xTW1xl-4" value="size: vec2" style="text;strokeColor=none;fillColor=none;align=left;verticalAlign=middle;spacingLeft=4;spacingRight=4;overflow=hidden;points=[[0,0.5],[1,0.5]];portConstraint=eastwest;rotatable=0;whiteSpace=wrap;html=1;" parent="tgNo1-seNx9lQ3xTW1xl-1" vertex="1">
                    <mxGeometry y="90" width="140" height="30" as="geometry"/>
                </mxCell>
                <mxCell id="tgNo1-seNx9lQ3xTW1xl-7" value="image: Surface" style="text;strokeColor=none;fillColor=none;align=left;verticalAlign=middle;spacingLeft=4;spacingRight=4;overflow=hidden;points=[[0,0.5],[1,0.5]];portConstraint=eastwest;rotatable=0;whiteSpace=wrap;html=1;" parent="tgNo1-seNx9lQ3xTW1xl-1" vertex="1">
                    <mxGeometry y="120" width="140" height="30" as="geometry"/>
                </mxCell>
                <mxCell id="tgNo1-seNx9lQ3xTW1xl-5" value="update()" style="text;strokeColor=none;fillColor=none;align=left;verticalAlign=middle;spacingLeft=4;spacingRight=4;overflow=hidden;points=[[0,0.5],[1,0.5]];portConstraint=eastwest;rotatable=0;whiteSpace=wrap;html=1;" parent="tgNo1-seNx9lQ3xTW1xl-1" vertex="1">
                    <mxGeometry y="150" width="140" height="30" as="geometry"/>
                </mxCell>
                <mxCell id="tgNo1-seNx9lQ3xTW1xl-6" value="render()" style="text;strokeColor=none;fillColor=none;align=left;verticalAlign=middle;spacingLeft=4;spacingRight=4;overflow=hidden;points=[[0,0.5],[1,0.5]];portConstraint=eastwest;rotatable=0;whiteSpace=wrap;html=1;" parent="tgNo1-seNx9lQ3xTW1xl-1" vertex="1">
                    <mxGeometry y="180" width="140" height="30" as="geometry"/>
                </mxCell>
                <mxCell id="tgNo1-seNx9lQ3xTW1xl-8" value="Bird" style="swimlane;fontStyle=0;childLayout=stackLayout;horizontal=1;startSize=30;horizontalStack=0;resizeParent=1;resizeParentMax=0;resizeLast=0;collapsible=1;marginBottom=0;whiteSpace=wrap;html=1;" parent="1" vertex="1">
                    <mxGeometry y="290" width="140" height="120" as="geometry"/>
                </mxCell>
                <mxCell id="tgNo1-seNx9lQ3xTW1xl-9" value="velocity: vec2" style="text;strokeColor=none;fillColor=none;align=left;verticalAlign=middle;spacingLeft=4;spacingRight=4;overflow=hidden;points=[[0,0.5],[1,0.5]];portConstraint=eastwest;rotatable=0;whiteSpace=wrap;html=1;" parent="tgNo1-seNx9lQ3xTW1xl-8" vertex="1">
                    <mxGeometry y="30" width="140" height="30" as="geometry"/>
                </mxCell>
                <mxCell id="tgNo1-seNx9lQ3xTW1xl-11" value="gravity: float" style="text;strokeColor=none;fillColor=none;align=left;verticalAlign=middle;spacingLeft=4;spacingRight=4;overflow=hidden;points=[[0,0.5],[1,0.5]];portConstraint=eastwest;rotatable=0;whiteSpace=wrap;html=1;" parent="tgNo1-seNx9lQ3xTW1xl-8" vertex="1">
                    <mxGeometry y="60" width="140" height="30" as="geometry"/>
                </mxCell>
                <mxCell id="tgNo1-seNx9lQ3xTW1xl-12" value="move_speed: float" style="text;strokeColor=none;fillColor=none;align=left;verticalAlign=middle;spacingLeft=4;spacingRight=4;overflow=hidden;points=[[0,0.5],[1,0.5]];portConstraint=eastwest;rotatable=0;whiteSpace=wrap;html=1;" parent="tgNo1-seNx9lQ3xTW1xl-8" vertex="1">
                    <mxGeometry y="90" width="140" height="30" as="geometry"/>
                </mxCell>
                <mxCell id="tgNo1-seNx9lQ3xTW1xl-13" value="" style="shape=image;verticalLabelPosition=bottom;labelBackgroundColor=default;verticalAlign=top;aspect=fixed;imageAspect=0;image=data:image/avif,AAAAHGZ0eXBhdmlmAAAAAGF2aWZtaWYxbWlhZgAAAOptZXRhAAAAAAAAACFoZGxyAAAAAAAAAABwaWN0AAAAAAAAAAAAAAAAAAAAAA5waXRtAAAAAAABAAAAImlsb2MAAAAAREAAAQABAAAAAAEOAAEAAAAAAABcgQAAACNpaW5mAAAAAAABAAAAFWluZmUCAAAAAAEAAGF2MDEAAAAAamlwcnAAAABLaXBjbwAAABNjb2xybmNseAACAAIABoAAAAAMYXYxQ4EEDAAAAAAUaXNwZQAAAAAAAASAAAACQAAAABBwaXhpAAAAAAMICAgAAAAXaXBtYQAAAAAAAAABAAEEgYIDhAAAXIltZGF0EgAKBxkqY/x/wIQy8rgBEQAAwwwxAPaHJESjySW4LPAb2X3Ytixpk9OIJJAlGm+JuzMNmC2+dpniOAaXTZ621XAdQESxWfOjFcqYHz0tdCijreChv3RiL5noVrsn5atkAAmBRnkP/8Q/D74AruhlklZs+nIQh3JydHP9ZUf2WNMUAsIE+KLMxDEgDbS/h/oubOdHJkOx6QZZmh+bylw4JJUABfUWHjs38nsEIAyqx88ZS5X2tKvnorUC/xzpBEHYA5CEkh4ui66PH3LQLtF8oGhw68tXSRQUMuMM/LXxwklGrfIe5LLepb/yWbNmSJ6eYz8MhzYiXRWzTIThkwZvnrjVn9GGO2yzPVzWzO6ALCahW7O4PgWeLloPPfNFlLxKvFHkb5jHT6LxZN408r57nykY4b46WiVbp3A3Nh1u4+UafqQOP7nJXPhUJZJh0cuzEblGWx7eeGzh2UWvhC/yERm8nyYCy/MJPUVlRAgP+88tkrPsc+u3sDouhh1VM6k80yO82r3B6cmCofp2jr8lFEGGHr18WNHbQus0NbOlV6lzBfwNfI4kuFQNEaDcGRt4RJGHByQ5jIHolM+A7yn+mpS0LqXWoDJ90Bqp8s2bRHQNXaA+52fuJGqmF/z5FZTMjwQHV6dFT7fGD+ztiaPZu7+SFI7YfUoA2dtErx4+68unDx96FlDe7miiT8mG8bNgivttBjPv+/+LLAZKQ29O8IzZinLSqjG+C5S2KwGctfs9DbuuuPHjm8L3FKkKn5r1c0TwHpuvRYQA96rnuJP1J86Z+GVvX+TV6WAbt2MwW19Fa2P3+iA/RiQLgnKqNTA4+vZplGepeQKl52Zlv7AycP6GstDyfIlDOIpl5FfNvYN5zBTzfcqrvge1TvNSQVtA07J1BNFj+xkP4x/3hnQ+TN1w9XD6OAJyeyae5Q4vy/MDiR7o/IYheBUhzmwi+vnE6zl4eVd+1AWoETAznuXtUSexePh+qb54z7tatgr9TeW19O7OIQ2nC6fUTqZgwIpup86xz1ds55cp5dA7ZksalEm+4oeIN05X+MqX3pIHhpfYc5cfPvu+1WDHm8/fI/QI+zLOdXEWM8L3u88DHRCW9yAWmXjaONHc9bf88vaFPXz4YJkkJ9QAM2D81MPdDTtXsg7+NfLmsdKkgDxcglbq3zyDZngBmdXVc1h0jCMwqg2N0mocLXP7a/VgBk9QjovdGMyq8JCo558S3uVARPX/R59ulJJiyvEpu2o0VT5aKX+d2fPkRpaakIhKB7pbroLPx91KNqh0EsU42y8KWpGzhc+7wyUk/fVrI3wi8/9fFycHR+3hP8qqz8ae8cTDUPr3YbUEafM3lwb2PvLrXzyVQ/F85A+RzX6E9zE0IS23Zp7XmvVD/GWF/wupWwOvrqKXTOkmXsQ39CjcBscxR1EMk44jU7qfyj4zYiwqyqwDjY4nltQBCiZS0gWDYe9CyqjJtZLdVqgcIskoo6KnEVep+DIMFChElLEpz7nbqHnnFG+6sTOjloQWLs1eSOkoVJZPYjdiBT5stvyfYy/2H7rqt0KWBv8XYKtSIdQ+YCvIhvVfMpO3wObWtoYHQSCEiIs4hp0ExiwPin5Edw+0E7zEhgmoxnPjSGdruX08rQkjIXaVUvyveiYazPhZ0ZNbCoMATVXkgJLqK+JeDMV2CemyyEW4zCc2Uo3OxBA8zrIJlrTJCXBvGEDgukMqPZjp880BW904iSM5EWmg1r8lepVkM5MaOoAptbXKWLc1G4fxPe/au0k8xbsceXzRU9SY6LYoT/HVNXsKDBKfyLGHOXBJ9AiHk+BJK/oWHPcdtOJcXquXVwq3BBA5vFCoHgakP3RQYFL+RbFP4FQcNJJAHKgPiJJ4UoN9Vqpve/+rhIG6G7EOZ+AeX2RDIy0I3I6Cj9660Ixhs/XNPBBECJmriRyftuVajvUzcQNvLdrI+v9bLqKQ+vsOmvNC883hiEol1w0CuPj47mfuFiXZY9eTXlh1n5r7L2aokf7KasvXcrphQXuEhPWdjCafqMI93H+f6LnwQoAjlz8JIG8WmRNgJuFTEddpE48PJ75DB8n18+25qPjZ+9jToe2AmPemgjdY7f2z6jklvafQLYMc3cj/m4V+0sr+1wdw7r6/7Lb/6Mg8+nNhajbQLZcav5VsriOrF6082PLyhtwo30VFcKiu/x19yo4M7Uyk1U+imG4GJ99MMcZlleCU8YpXv/owkeF9qqihYU1s+fQDBxPWkdeFNdrntMyKjv4qi1crvmIT92IzRE+EajLJyflZasgoPecmt/f35QvVpTHRNlhM7w94A9IjFmX6eCy7nv7pPv8kIkeopXZgZdjmN+00jF9RcxGjj+jJvROXNpgZyWta+wIesSXzTAFie1nVmFoJiKNqWHD48ZgeLstcPuKN6JyECx2aStUkKiMW0/Ofm8glocOL0FaWu8vyDiPv2kdvYVOtkSu7cJV16YONnbJnxqYVphOiKZGQcKLeNzA6StkIkJcaph+lGiUKb2ZygRwfT1W+iwFCYf3PkgQa5ka1XSPd6QgQWGCb589q/4f3zoAEH29TP0AQRE1w3OFz4QwOLdaC72axZ0B9JeEL6arj0rR6Lqms6yz7HumyLsY3lvbUFPTLYiGGG2sjgHvIgRxCIPpEmYmHvEhXE3ALgWK3ZPwD7gxWDJJQzrt6z227az36yVtyfYvEVvJROhfs5RIWKpHGd9xXbbTqckfbJM6OXDQpOnPfW2Ocw3LvfZong9P+Z2FyvOeLuy/YVE9cQXQPo9/HATSb05aBp/NJA0SNVYW34xoYi/3BWiju+eR3JCfMcXuHMc3dVcC5dDuGESGBo388zSaiTq4x1C24KtWjSR/jnBpVXwN0seCd8PBxyxt8T+clzbkRBhpfCjrHf5napWXGykb/M/+sXpEbya3d/mDtG5kGxYzeq60mQjcA2ZZ9fyJxVfjsyNhPSpTPyJGPKCYXBD9CryAMlGlzFJHGYBXOQbOrsKtLMEcUczWm+Q7OCo5fMxz1Az1lIeXR0dvk1rjxpWCZj7t8SRCWseW2gk/B61xsMl/LuUGJYyqdEvYbxE1NB/MZIHBIcVYwpTylWzRLWqWkONLhuEJtOAvjNOXzzisqNgTQwXJTPiRDXzTpcjkm/YCch1L9pCqSBTZIMgf9v5lMusy/aF3W37wds7wTLdLKSQZ2SVLRanO1cEC85NLrNjMAWIZTKHkxmMzPm+PxVFE9uxMdyLYijXgztN8cu+XAmKi6VgQ8ZlmVyqNZ40qswcjJiQCD/zGAPEW9l3eSou92I7TqmUpoA6vapmioohU2rhO7142tflwNzJPMsT5dxpHr7PqzWNw0CrbCyj3FHa7JceIHe5h/FYUNXyINWmMPjQJC6J6OYb/sNSzQJY28NhJFqMlUiXcrxFC1yfa7xs/m9vvff5bLFszLkIf/iTkOytnPJIxl8sZimInL7s9PAWkadzIn4DTJtuRJFRORrqcwQWz4CgG9uiPH5s9i/BYx0xo0X12Ak/wBDOoEMaY0/7Fofe73Xsi3dh7FQP2tQEpc49pN9GPrEIbesqL6JO9xS4q3z/GgfXsu/BxW2NZsst+W2mSR/IzAl5rNU2QjUkcO8SwdTTKSjzIM66VyY1bqHnc+oUGzxSg0/YDnJQBPE6b7qW1eF95S9bzt5pa/wxRVP4/DeWWol7yX0qC8LP1Eo862V2czEP9pvPR19OGVmkU88GIET3iHnpTv+c6JBoThVpuEXUk63Wfq5D4nIi9HNMsMTGDiiy7p4XsI3wN0HE/5SsbMYLsm0xJzmprnzPeChGrYkzZwT4o97Nc0uS6L/sH1oBipvpez+a0AMrGCvSzfy5aUx7VtxSZb3uu/Q5nVeLZO4oSBcaOh5CwayHtGs3iVRlZzaofaOy8Oh2s1/WlwLFtDnJs3nV2lMrQGac/vyitSslNMylumUPWhjzMQYOMIKYAfKFmTXIfEjDa9Ep/n7XLyworG6Eqz/oBGt+Sy0Xq5j/tPvm/JmjZlbNoSN2wkTzHzbYBgv+PpjM0NyCMZnOc8DSq1W8t5+3V3FtNe0CfLgp4I3qZIxioLL2gZAANEnvJN3j5ZvlqsE1YzqopUEPYcZ93WY+cBoN4zkiWUxYTpMVyfKLOlST7JUvKn70tdEzurSpAbXV5P+BJUZoDIGnzZl6Fg7JW3hBVjZCGJoFgocEtE+6C9z5+79p4K3CD4P/yiSyLCijgxJAlcrrPQk3V9BZ8U97/GikXKeB+flSIY6SvljOJanIZYXdD4+w9gXEkz1g3ZQr7LwhIrazZ6C/Gw493vNqrjulNo8R2ppXtUse5i+0LO/lod8922KdTsfsulwzzyWjzoFwJa0qtCBLwdLhk68OtUey0DAW9QY7FQR0aS8cr8VXpPFl9cZzshkQVBWfzPX9eecGvYQY11s2veGLaF4B/UFgt8r9rNF9a41LmhHrvk7D+CsJYwTofj6tEUQ+K7tiSRpK7hbTAZW/VhwrJQ1iVbfMUaIo2dLx3ofswi60b9hx3KGOpmfK1zzdG2Y/exgDlCj5IQ8xDvMgJMx7FYS3KJhiszVGogcnCaauuVvxLZDrUNYNfn/Td3LHrCPxXoi35udsWEoRjNS+QN/6FKE5yiUb9d/ADX8JEyGERRsUqoQ19/10QXFAaR2+29PciB9LKOP8D83x6ZlanfSTWZr+hsf1Y+UYMIyHFdL47YL/8BLeEpHLTYRnKPfpJPOK2cZu7sLYbVer4CPB6buOJkCpPaYBRR941Aa3yCEyAXoj7OnWb9o9S/qZmrIbuFNOsPOSZJPmAkWGj+LKAO4iP+2/VgG4Gls9xp40ZBHiWwKZgH2YyXMKRKszFWO8PILqAxtsTnMoQz5snM9zAVnrNHj6w4ir9YZ29y/JxJdOjMjez9POWJqRsK/ikS6UTqSVFXtriC/ZfzQloVAGlEKbThmlFd/njgjZq+82EmfyPndSfNP5LZw+b1fqdHEbOo0eLftp8TOhz/QJyQN6Akkf+/942lSVMGiW3QzBEGUwaLckQ9CzJKM7jA2tVjmydQuKoTsSNNwHzsvXcr5r/cqtghfqhuiXXKPvQwNay0RnaaZUzEY+HqlC6N0m2k0yAlkyYnS3pQUxCNdF7ubKW/9cwRo3Lunp4W9087+M1s2xG5j+ytnG/B1Oxzp46vmueZALJ9DtDApaXR4eeJdE4rn0sUrGgMpyB8lZ7C2w1dQ7vzjaEW6q7WPpqQvt83e3nI2M2/y1aIS+8w4Ihe5wctHsG0r+ecDqblgWU299GanP5xrCDL1FkHiDIsE/fx6r0cKswcShxiQ3I0GYPpnAQKDNzSFPWyLo7xbj2G9ebsW2jMSEySPK5GihYFPoHl6SceUy/hp99hQL4XEjB5ZLq5A4iXOa3iZlVkp+S71ZlSpeVCywpvb8aDCtfDxVgT9kFmXAGG2y8dDG29Hvg4NCaGgnnEEwKPCExHbA9hvxQ3yws0UyqSN/FmQedQrMzzeXtzElBI8ljUwcldsCS75zkRCBHmKAPCXbW3VJLRHe7Z8EpivLsWTK74l/lH8/sZFYhZ9FXsk4N3B0fMyVcoxRC1MFl38LMSoXV40Qpt2nwEinHj1aRld6TNWynJYsy2+6uQbDSnJFxR1MG7fN9eXssIdLRaZgU0TbT3qZ/OoAnv9t/7z+XyqotnNOxZj7UWkdQpvtmo2R2rcvqfm12y2PNwNeyG3Mj1a1A6hsTr0VJc31AjdNtgxRx445g/fkxC0KohXIPW8b4nOo3C0pSZKHI+oMplQI1mSTId4GOvfAiJkxZZQ0DtlCBp/+u6CWgZs2Y2LObdDBCp0jvPrD1nCtNSZHUEFu3j0bf0+dplOOw8rOQBQXMZmtE0Egzu56bhsyLJOUaPbkNL74OrstgzyLoI43rYCxjwcqNG4EAOMuOdr1+xZvDuj5/1Ber0owW0rq6mdWUE/bIs+yFClZ12jVApXWLPCLaYmxmq87pNcsdrkllYzRavegbd74B6TR4IBynRi7BbMr9JKw4A+lnX1CwChqwjzSn2S+XcKkLCvIl+FssNJ1/m89AHvcKcQG0VzWehEgCup8LIFwOuED/FDPaYffXpSmupsjwUKTmvb/oZtDPzfeKjQIIyE07bXkaKr+pqgxp5giSwz7qnHDIqwhWL4JsCrqcKuJCZAtzbnoBnpJP8wehiwg2ehT/8pYN2gyf6BNLO0827X13skefoD4fHBtXpRUg4SjtLGL2u9QRP5O+y/DfLengABPo6xk7GMkrkqmQY6pR0LFOhXa6M8A0EwkxL5QgTsqkO4NHWmi7DOWPjcGpOqXs5H3dzC3oYj3nc+XnsVdDo/If3ZZKzhhKr3CEYnLOVOJPIifbHh+FO9L9wBlBbSVkyyE7n5eGey0UVMjGSBFDExIlbny3wJyjHpj9uu5nbVyCOqTK18Xvawyki93aidu0RMtGnzN9Ihp4e4iWbWWcyhDYjGMu9a6i2NReQmpQAOtmV9N4Nlfson4slbU3ZS6fDBAIwohgvJYmljzL8TyrX4WF8mK8SM6MzlbAEQaS6AVIzwjtNz2HP9Vv6KiiCztRZ4/J5UIHWy0kLir4V8lMBNF1JZtlkjaUr7iDcicDL2QrRQ9zPvMSzhKN5gc6IIzedEqJ8n3EaMHEGq7qm3zbS6Y0/hb+5/7+7EVvFIbb1ZWJVgdY5n8JhYTnwRK0cs5M2pYGXYQYo40VvTkiRZu+pGQirTf7zcBzwS/M+EuiNEKnLpmbIjNbZgXuJCrzqaF9NJhEc9ivuqOSxue6a/j+/EufNk4EuodtShL1fqu4xP3JFRhpCaxv0Q56PZ4YgnSTZUClc23q4Vv6I32yA+VfVRKf4F6TbxQlxbyhWOuULKUNNr4Kg7sGkBweVqtgb28MhHhKNHhvKPvc2Uufux0LgEKQtW439O/DRdMoulzNvWkacr5+cHvp0Gj4KcMlYVuKXCxRevmrBLZwP7KHEldoax8JFQgBQwy7DiSxmCc1pQRtQ98/9gcnoUX9Fa53hw4BCZF4eKYnrXkY8JR3f9Vj3bmOIz/W/UzqAVUx9hktwNLm4HIIllGHRE4FH+1+KMC3pWLtFUm+fTEUi6IDYEyH+9sQlpof61/cWLSGKMhk81Ede/WZTenifH+rREYEVHiBn146yFFRGPvpE+TCxAOwmMA7il7QYRbAbVqSsLTu+rNp5sR5fBbweUIfSNXsEeXvoyNPOAxKcaJxxhe4EdYZ+UNXayXxzvslYIcCuXtgaF43SSozPQkm1N6C0HPjgdlc+n5IEyuVVCdv9u/oj6wb712eE0Z/cX5kyovQUe64BwptqzcPbAzj8Je7EZn+8bISTayccC7tup28gYplaEQTTIQ9Mi18hq6bbJGjLibvSyDcAeODHby88ysf5zI9ODGp2jLoVZ6U31yYrlJqMDmhUyHh0ahZfJR09Gr/RkzwnqWwh0Nm+Q5mXQOPyqQQtRT4YGY3dmpaOYigbKX3mafwyQbqPkfH2O7Z213spjfc8uTG2L8RSDRhMNmnJOUU6+KP/5RTLUmvuxlhyV9A1yuVhV9EMX5l/zfWYOLeHqaJ2rEiL0ELvK3uTUyQjtLE5nRUes0fb+tavwlpfLRtlm5ZkqN9N1H9O54zgkD46zpQE/OvtGhJQpNl62/qhnMsdV7QE7N6gO3dlcKcIup41z0wLGcKml71JM3bEzccgE3NdyDHHS99IH0Dh0BPuh7Jp8fxXz9QzyLeMFSlZBR6ZAz1tYWEjkT2ZspKlYN2/X1ODsGAoR9hVuPkUt6AMjAI3XTBKgFrWT5rMl6DzEjQT7PeOsUl0diFiOTnwqz+sU15lZyjxg9/6+rkBvwQa7wauwWHQ9MoabvjM/HX1Fh4DWEhO+juaWx1ufCKhCQldHmdt8TM6vZgclEj4uEWhIxC91zEFrjTPdFxx81TCbufBAeN8eUnn8s/vz874JKjicOfqq8jQm95RAv2xBe0pVx9MARg719VQkE0w0SzjbC4gLK/kriuk1go0yVLdBFKdiKAP4jJCzalxQVTKfXFcUt3XBa+Zw7UcULny3BXWa4h93yTT0Fnrq3rgnSQfB2wRLWAZFdHsrf0dP1EXwAFhOP4EQlZJ3O8C/C2MTOv6wGbn2xrd91mj9WeuyBsMZBxC93/tzXLjjIuQ1sz5Y2dAQ14tGV9aAODfMP3PEL3/Xt5B/I49rhult8rk1Z75RXgEDCpa3QAkkfUOV/kwTKb5KDsiRPZaCMS/IYiXUIs/SDMn72RzES1x/7fQ0GKSE3PR76kkMw9NptoYNiNoc9fZGkIRcdFpY8376rBRIZOrdWZHmpgqJgPb8Poo4bcq4H790N0VN9diT9xFjM/MKe5OkGk1/6Jd+ftxrE+nd06No6DoWTqCpv+eesrgr2PWrdzRj5hFOzw8JLzW0GVidIPevv9vO/kD3NF5BEuVZR3srp9iUoTm4kSj5R7AdaLUZCVk9nGUWV+RXaG6pnclMG7IxTfa/S7NbVMrzfeqif6qakh5Gq3u7jwuBRqDXDduxaNVpOujtT541pvg3p4C9fGVvwKa3yeJ4RmwUcCT+Y6JudHmgfXHa4jOZJQkNpkwdxrO4wTM7+SZcXWbgxDeQea18CIuT8SUygYrYYyfzr7ZZSQ+cBLG9XNrcnCuxqS189ifZ7ZMssRf8bSUk/Efqyvp7f4q5sXA8xCNa0DUYVefNG410KYzjV0qTnv/eAbyc3XZhn/Y0t5FqbQAWxoaWPgaNt8v9u3w+7e1zdS3NhHYmaLJIIwVR+lbW1LEr/WP1nRZFmR0GvVD3MIU/DE8SN8iXaNbdWeE/Gnl6sYEvput9kghZw2UFATijfu6pThPpMwVfXAGqEyJcaxzpZGKqLX0noP+1lai6ku8+U1HOA5HwgTzpPA1SqHCSE/lDrsg9guS5Z8xli4icYJHe+QBC2heqhHUdcS8i4QDIZkseCw8PjI4Rtb6/F7FkOHy+/It5UGQCMRJ4sMSjWvvLIWltQsaYZ3LWaMZGF/fpr/Bn52Ob9w4GlsIwONOqrjes5zYPMMfWfZhJKLmYIcqskuF8LdOcUuI5arvBy1+HDIg9lJvCleeBBNRAfoyUFeln52H59L8Y11O0wG0uL63YncNqLrxJ9nNauaefkcdSVDDvzRJEFBjpup0uQ7zmNiaGjd7zJmNxMHDq9cAlDTiifu79IANNDDT+P5UPH1O6PGS10uF+vPyjAGexsBJ0RRrurWYbEn5XsIEJd321GNiskuwxfI1EU4pVY8Mm47CRog0EPvRdfRSvRIdXwQipGmxtXb41Y0WO0ZuAjPX52lJ6PFCUVoSGHwufqtrB7uN751MKiAS4OV9+3j2UIIax4Jc/xJJa3Jm06Udv5wLfWe3IQ0hPrfh7a5OES0a5MwOG7lsJ2RSdvKFlOQfNwnwmzluN35lJklzgAA7AmilY2bVhqPKjjvcrE9KV6/NjaPTXHy1ULnsWb3t2agldRun9ZcmxJb4ZkyuAJ6qDMdxYw6E3y41NxNmDeA5Svo5R/hwX2q5SQ4UjMqPBXHXJKuTNrxQZNRYEEaxU/kX+Q9BUNfs6HpQDnLM80UH0psK4sx9pWuKhgyPI+pXswURpNMhO6xf7lUOoOPYaDI7FbpKUeeGqgmly64MVQXTfKX4nGcDTlmXvn/wjZX/mNlJQfTvl5QHb13k1/7u5ULlTDb2oGmfhGqwcWPpWGiK3NOytD9nnszzX61OCZ8KlYqwTcAz4g+OjALQmfK8kUduVOCmpb4xPMn2go5AluTEGUDboYq4Lv2jT4OUciinMZLLZNFsjn4RFjK5XigcFcZ0WYd8aWCgZjryLphLM2GnxntOknDlH1yiT8t36hswc5K3VUCgsVrI8djGD/p2CqGcnO5vSlpCaNiYq0MU8lr0A/j2lZJkFMmR8U7+/QaKmfStY2NIHv0/TmHX/pgMTjGhUMn98K9nHAnhv3YyMMRooaPUp9gUnwSr99E43A9kdzgdFGltZE+yHJ7BPzXMmdQEJo1A8/YiBJpiJyyLNDfWi7Jwnxg9kQrFExgePakp0KzCuS1iSji/6xEaLizp96P+Y2QkuCNDYEMyY6o7Fv24V7IqdJ662boKmRBTOiubaI88wOKA6iNgc34A0GoWaxXnSVl+UzpRj+/940tSQPq+vEKZvoJj/zy5iKj3uNbwvapPT/ajVRYsm3G8gTEVh8Tv6csMj5PxQPPj/JwEEHs1SXBOgtVGOYtM3AnsiDpWp2QpGwlljjWh7HyY/wE4JEde9R3iHbFxAl7rxg9NcPAXFC8s+Utb99hgaJRf+QrniPl9FmqdTspFIElVgnbFgXdk2sr++33CrX3Y5LM770NyGU7O7Qs7NbVRnwhw9ydsyhSLMIFupOkWSqEMA+h23cKEU63TyKe+YAK+TrqJ87lH6E7l2DJvEDwIKfgRt2FCG+y+rW6GLnUsWAtyXFY9yVrWoZq+D+uYZfngbK6Rrnpav3uskFVAZgPv94ez5lgzV/WPrIeSMJ8uFTKCzLKofBpOVism+WRwoZrBV+PTFO+uYs6OWFE//V8QA9k3qNVhkx0MeLnbNnDRs/lnGHYZGxKLVx7i8lEkkF3EmazAI3N9m9w372OOEWmdzY+c9oCbryJzguSlYTwRnk7Zse4BvMRCHbb5CNnrRKR9VjSqZqqgGVxSEQgXnpMhyW5MkotUf5WiIBTo0i7YR9KefLzyBUHzO1WvGLtvG5qh9QTlW5TK2daY1/HdRwkCHhbsL6pOKdtsSCmF7AG9Uj8uDnElieXw2IpoTpGKXaA9ALHAgfWCi3WPH6cAfHUDYnq40Pqt0xBfmD2QR2m4yJjtTbWZarYBpS5NTtI12e2b7jyQPPqhxQ/WlyLDymPGVQwOYzjR6sEI2uvjsYH5JvIiPz7LBAazGzUqO6kep0d/BDj+rKCVe5VbcbUS3VIP9x23bBNKQbqnQCE28P1ll4xcq8QrKXNKKpkE055pU8LUlvSvkiuGjQ8IUaCgNrBdqOd6FegYKxmxebJNjGaz2MJ5+892elzyQsxYwbRKyOLiAIWz9nCAL5Hqt4wK5hUQ9JKdbbUKgKT+ALD0aDdTOEf8uqaxIf5KLbHrFOVnPI46wfO3B7L+QuLkV6mYELlvBfKzwBQBzSua5D401ngI9OKiChVQ+eEMo1XP4GSiNzTuOIMajcT14LIKXwNrh7Egnrtm64iOmJYeEwOYDUxi5QwPl0MjZGi4KdReTm0LmAYtvpCV3oTgcrdvt30h4dIwjJ23XhPvuQQjq4BEyP9EJv2k7wQBRgi6zgGYg5pMeIJXxYxKsD5DibgOOzjg4dSkcNsTQH0sLUo9vV6poOo65PLJIW2SGhInnnPHBom4ieU2AKWJ4QyqOKfymul6SNwFdr84O99OxERDI9iKEE+TbI80gh+wjEeCL730GoVdAyfLJ2lReZU+7ef61epTnl6rMDFvrXjL8mlIXspsmAC/YoC492fn5o04ZkQ7zmO5ooYIiRH85exhj2DJN4bvXRAsfqKCPmP6MEVfpetAuxRLpD9iNbqHxWO0mpgfQPiCa3sjOdDokTnGy15UwB2K2N/55ibz6emETAaVAZX+xflHtdFA0/zBJ3lMuNqsS/tVKN+lhrlR5wsGVxOrGYy6ilBiw7Upx4lPBF9oGPWDkxWbbazCFSrXRr9mXa29Y/C9ykRrpFzRBYy310a6ubrNCpsTHvbJnNkCrGdrzRxpWCYcjtcnK6lrRQ7pwNqRVeVo5qxEDbAAiS1UP44QreYL70bzBHDIzIRE9EIS9f45Lr2H+OxAnQ7r08nzzC5PZIsLEjLV0u4jmisvhljRwVSbyU+hk8CWBJFWevu9X1IO2ql9oWY9HO7VLgnRTFFFmSAZa6nfGuFzaO2ezcCht5lPVyEKtnccuzM1oZW/TOngWjBAGF9A5XOkM/4mZBHoUEIctVrKSvg76C4NlLIlpTyTVq56wmAOM7tdNsVorsgvJnn7EvONpLSLiYFEde4w8zIFwwb2Qyq/TnPmH+wrWWgEAsB2B6MSFD/70HK/idGSMxGmlYI1Eur8cgSF75tpo3j4NFsmxBJqUF/nfH9dFnaxKM/aqsHS6LEFmuEKg7GkUPoFfiINdiF6CwL+ow/2ja4dJ1Lc3QW1jPXg3n95eLj+e6ox+qcjKaW9rJ4oUHJ551DcxKomeBsM7oFojjlDqafhWwjCdXbGdjEgJU/PDvEBYEOyOljbZ4ZMtNf70YXk13avo9VeCedC+yCjVc339sM0XrbJADI4jg8WpWGJp58SdH5kNpHuZPmfp4tUBqRBUWwDiQoeA1ahd0C1G8sr39xnlVjWcis5mQt4bwZoXzxfepL+AFedrXDWvjaclshOYG6nbxRF9BXozhenR2QJRefQzdJDyoPGUj9700gx+L2Kq2gB6+2Lk2u9lTDCj/eqigv55KXHlYVNOBR6g02oWPc4ZVz9UTvtdimpFfyonvgD4ELBOoy1XXh0PBSZ0jLHs8ytN9K6gS/EU4FUFbDUiv4RNS2DsubwoOruUDiFoso9KaWQEN+qye3N6KGC+2KSA8naoBwN2UayynnMRWtf37kG59ee0D+Rdh+irB0mlWgIyhawM8YkeGIuIB+yNhb/6pxHQdB29m8IEDzkwpHTi9qw2E/W6aNZegWwQJ13KejaLcJO/FyEg6ZbhJlDlS64XNAGJqf5pxzuUJnySAPhOUU579HDwgo6wzjxUdNmgW5sVM7CmyOPQlz5CIpTQkN3yDBsk474FJNx4DzrDF9SUVB3sb0hV4bwNuS2l8ol3MOZ3LOq8WJpQE9j/fkem9CuT3477Rhs26kR5ZdefG4xCKeQhme743+rVm0mc2UkuovxswuRUM0DTOIgF7AV/oLwoakozitDMZOIc9U3PJiaDCXJs8Wr4JUubCURqJaBT043tg5sJ6a82rr1oIzvQcAFOmsomTqgcgXQvecuGpyJmIf9K3QTJsqPLhWEo9IZrsptC3mAIVPlHYXGu0aJb3LDS9DF7xqx8FWRQjvNsO4n+rmScVbdNyiNWButZXoomwJ8kDRYsXFs5m/FXTspz0ZeZ5RkjEGEW9Nkqx2GMEUg+nXlLynYdc7HGuCuIdqPWJu1JQsK54cMU57QBIq4Nh3gLOuanva9Fnx+aD6IMxWQdayxetl++c17oHXYHGD7hCq7juirxRhGnTurvNcU4/Hlm5kpb0Vs7Hptl5ePJr2k5sQFZGAj+aC7OZNaJRI9werbpRZNBIsf+R8VjDWaJ1rHjXTjwfxDJtCLBjs+ehOpeD1wYU4lge1yLJos1a2epB5UXc1Va8jugmzAndjIQg6J0xAEBKN4T70ReZUmwNwqGOFxJEQQG1YJbzwu1DdvCFD4pVnQJ2zG6NJX0ZPIke4kMvpmT+09kNfev7KX1HrsIpGR5V4Xd+ikSs984tQAH+V7WvdvdgiQ08TwnoYRexnsHv5HdT9mrepcKxcXJArhB0J4cDjwYxQiL4+EQHd9LkSGGafbAMp9l58v5pGkflVKrt0X+oARQnyHRaRvFpEFuFwnD957ovRSODoxGKizhp+fSYEfdL9400TgkWqGmBRuUBrPWwuYpeCr7K+a2JBHwy11KKLdZY9EtfuAULuBeE1hDzHiB9qmOdLtNmXW0wUkIvK/cVX31CMz3FNEug8zvGXnYvzBsEbxMDhWiebplwiMttq0DTFh8Ot35Fpa67OtM78d/DBi3h7s3n650sHSx9S9KHhnCC3Hj21FLD7jMXzaDHsOH6K/pA+OhXei5FkJp1232uPaLjCCUJNCYVFFOZtQ8TOQXxSqx4dd6XE0NgX4Y3aQ85ZrxKvQ8jc4Lj37FUO5h4AY3vzoebT5IT2+5ijuXZ91slZ8wodcWf3i6xRXVGAEQb4o5Y+Tf9KPYRL97UZjcYzOty1mvfeiaRcV1Lqj9Wqos1CHGirXIiBzNvTpLxh2VO71pEhkKB2fLk151HEr000GQBApiJJThOLfApFRDKuVQxEe0dSvi1b/bjj2+59mN1X8tQYhrB6y06eIbd5USXnvi35JUgCqQEUenWQD6FKG1Gt01fM5Nkw1CVElY3KcEJC/vOVIgQ2yRuDNN1KBqcTN+fSbL8GrbHf08mWI5Fvb5HZgDHD/MgruFps1jl7JQi9uNBufOq0GlkbwuIU2fVpypKCpGht+JtW1ivObhNGPEu1cNlaqirEIGKp/Whav1HrArE0agcm3RD6n61Iq/cKu7Q9qii27ckrgQ98bK8AW7s7o5KrU7oee5x1inCjiBU5QBmmTqfgTLcG+svzyh7TMNrRUCnErb0hjPhoyRuU+D0SWkVbcWMgzuHTPu+hwh3KHmbI2zwBJrafhRKh/byIwQaoTDjQScmiD2oxl4yH5m+oPYyQsLyQViZ1S8rpSZaddMtnEnffV6i0lwZjxWE5RJyKkb2BbbQgxEzMuCSr/rcHfCDQk/OHnUptpxAC19wE4Z2DhNOUPpdlvxGeaNKQstME/jv7y4i5QAwPUYeLfwynyDfvzygAHhYTV0UGb235bshJ41jn/qzqJ9Le84pQCTmB0oKyFMsFxmEc0NLh7tffNOUdcIW9z4MlvTdZHqkX7UnLrkK9rIJJTzb1Y5OMuwd2EDq7lzCROAfiIr/YJfCX3c7T5Z9W8kS2UCiR+7NFT6jF32rMhc/z/EdCV8fnpcORvcRnN4dY3fAiVxim6QSHDpA2FkGmILBsD6RhsBJtdP0G44FWG+fyylqDzPESelwjt57+lkAn6e0Dsl2qgY5em3O0i7ZDT7HhNqS1alId7caaCsSFzT8ycx8gjwWDMFg0onyMCVx+krNQVAHJY46YKf0PQSWmmxtrF7w52OSVxTgp5Rzt9D2YQ+xmi5oFYikl/BcRZsMljC2jjjPd4ibEHZNCEafVhNUV4FOPyXbkwM/KS518iDfwWk1kKqgyoKssEVUx2SLJiypSVcsaaqAVWAhxHQNJZMuDR0A40UBKAg3rKCw55+1bgj6nZ4MZj/n+Hbap+Pht9q01gV5083QifXH2yku7WsDQLHfC9pZ2xoOj4NWXj17geFsO2RPIxODeLPT1vOOHk9kiPI9mDWL4PVtODTXHeLrQw5REJ2l9eq8oDjPdVHOANNtbv42Ornzn3UqWRsks1QQvuZHis8UCl7WOPJaWFnqMqLtaCgwHoYG71yDfNzM3JTHEK9s4TNvLQYwEve1e8JqH9pxUXykM59GAH1Bxky8m/hALxzBXmyDZYTTEv5+WocnlPOZQ43PQy5OSAIhOhRqhaYS6Oa0zignxbmq3JvERM4Ufb0hG7PBkuNGigdMjlL9fqkq6ytPXD59nUrvC2EQnhhvfAfCouI5Wg6TiUO2pK/WRHXYDHs6rGzFJBkoS+Y3c1l3I4Favl4XXVF+chcn07gDnxs8H01Om26e7lBwH6+GaCcjjzo/KHl7g/6hwqhFdFFVPosuB7SYAnqmiGbNh/Wd0D/clg/iwCtnoR+c1ixVDQBBx1YqvZ99XK+xGcsfxIwYjFASzSfBepcQU1dl4NYSX9ONVoq1hOi7dEUAGFLtcct4opYKh5QQ7gbEy4mLIn/z1wKEetXw2lt3C3bDUQIzWfOD123BN0cvdPQPPvOEAWxCASRRZ6jyl6YxQrnRPLl5cFEHQrrb7IAwmViX8hTCh2lSmEakdNh84JSbIM5jP9YAPIiq8Fb+jyIVMz9rxa9m3kWyCBR3zBSzivYFm3RZEzjKlgmLstpPmTm/4tCuNkVqAGD+4GK6q2Gur1+ge6W8VdQHJwyLAaouf3PW1iyhP0inq77gMlPKFQU9p7oLX8cQm6tSKZnSb9MAra3E6FRgtm68odr+2o6Jdn4mYZZ4t1glakkCK/9kx65oEyCHHH5XvHazD62Wgtdplde/b4bqo3wiK6QW4l4CmXjvFK76WpwnYN1Q0nYliomKV+Ie65SsB22jI9hSeT7ZZdguEsYc8Rumdn0AKMFBbVYzpSQwM9PvzWedXo4OlSQASDhHa/oBvjeNZxK/SdKHjltYyyU5c0aDu+iTMaYaATfIFRB0xvbaLSzSe3wJO2SwefoRaMDJzLMCfUtUBHZqhw+qD2QB7tc+pWSPGkUShpZYUOXfPlJibKx7Ov05vnoKuWi4EeRSQ0aDIQwCiLKOlMVbKh/Lwa9BuqMUW4CB20Kwv7sSDaUsElVFBHdaAR/HbYneEzijvufpzgq7ah1iq0w1uQw5DE4LZswEXqmL6ol0qD/bxLX4sRUANRQHaHP6i4kQYrNehYANaFJKZ+aP3Dyd0wP4RftsZZaNdk8CdS6CQ90brBvNcfnhd8mkaog07rMhiq4++lXCuzJPWO32YougY55pwYBoxOti0entSuB/Mwukhl8a2pBiB1gWl++/qfk3CeOS7bwoOifxwI1kb4fWJnbTc7GCNF6HF/Zkh6TVT5eGmWsIYXUo86sYgiega8UrCOhP1nBsrRPCnEFG5x4e9gJy27Gp4ZTisgIRhKdT1W+e/4YNXUyr8s9DURH5Kfti6Olz0Jhx50iW2gcS/Vs7uw8i5pRKFMyKBkUSNWsgMmhb6YG4ZCoDR4qV3lGTUi+2zvb1uE8I0fK2Sk1viEW3IQlbuvX5xBRDQSoyXRIvwkuW9u4e8pClXTvXQEq2IHrfC+sy9ijMaoLq+o0EH0Kwe87+l7KSxcAqmd1gQjuQuZGi4wMbdCqzlaVftUjz0B4GjL/LJMhJej/4EAft6T0fMzkF05pF4f9tPKmh/V2rrN+GrDyArD30mikPqrmZB/gW/9eggCC6hFjZkpXXbesIPpR8j8g8Z/Zdrk1Aeg3UbfdaTaRvmfaozt+2cq1tXw/k2XpafesxI6JqI8/QcHWF6yhrLJsZDo7RLSFcLcx+NzD4RWOZvvAw29nd8K6IM+1QM3emUecGqE0L81bagSoZmlD3xg6JiSh52GegZIKajBYZzXL/E2UVazWq4yGWmFA8RZ09GagqimPieoryYmIejTcqnFhh4ChA5CV2SAcF9KF61t9bX/zTiKhlcijVca2c4CDN0rkM79D/LRMoPPVEZlFGYG7O7sr4nbdgwXEdFuLGdkdMYEifORAAL/igOw0jVU+0C8hZc7kQEKj40fGHURtaTpEE7Bc4uZ6yKGLymtNSUxzN6BNgfWYpFN/+8XDtcE6d6AYK0uEKEWu2ugjhFvwU0GYWjbkERhJMh4vBcWs2wHQP6j/z4sbsEY2nRoqWRH4zxRQhiB4++xEmvYL7bYbTt5Jzc9jPgA182NfsuEGfIWsKcCUBCf79dAemSnNYS0PrWqNVg9ocZ9guaDQGfWfEgalxW2DPorFYZ4huwYW/ZL1GMxNWsTwjpEeeP8ZcuNxTsYJV8eek2eBvRpvejQ3pHZ8NtFcyhMH9tbvWcyvG1NKcH5f3Lo4qoz5wHut0Sc+5EMwkEfdnvC6Hcn/Lo8zw1pDlo+9OKyuOIjYg3+GS0h3w8Manocg7xzZV9f2DHJIYhprgfdeW2b7DAlxP96e4cheApGTipcNopKJOyxn5c8UPAhqqUrG3rP9bl3RH2W6Vq61HtNDktEQ/d06HbXDleFo8hou0G1F6WsYBqnWGOl6Y6CRg4cZtllHyzHNw71ggvoYY44TBikzJdnCD9W8Dm9CpcEjMCYbv/fcvQr2xrUIfRN0p3ybMIclsS8tmpA1CnK5FELEFR6SVmWdHEMF/lsx6iazz3W6aH7uojPWXIrq017kw9yl7OFz/toKaYliNXDrjNhAi3TAQUtihNkgQrW643KXUp9zYPa5Rtz1mmsmjBl78JE70Ek4/AsFPZfeQcTmO3B8GBDOnR24G1rUtg6hPKMxGowlbNylulik9YM0OFY1hunRbMrTW2Vqot2nCKtS6LokqF6EPak8yB4X//Z/ibX/zW3Ru7h9vCTwbGPqwox3tjQInOfvm4bPcpNe1kVLr+cc8WNKFyAsmjmxX8x00HTYdoSWgBQtNA/y9zx6t6uJnWr/IPdxWUpq7NdYI7rEWdA/b0Y06YwaSjUCKZJ9CBysmABDlt+XtfhiA/8oTbNkMpYH1pT7zegbhybU1qWSn/49ddfzJx6pt/2rf7PB9JvYOUYe0/vU6NcxupKTy/SNemCsD/zPXY2ruN/l0dX1qXE5DEWaJW2EgRFA5hUZJi1IMvjSBuF/KlpmP/NHQJVH1mZ1vEq3IOAvXWA/JBNSx7XeBO7CFqzpnLGgRpaJ2FAboNdBX+PwmK3fM8KpZr3iGu6dUkDTwSuOzwLHHm2MBsjs6Bi7xjXrsJn097Y/APNMQ/Nspyi8174MW7kTKH0IYFwnD6fX6XySjKOwug08K/A3Hoofal+tcmuBB02guvPay0QUNwwWrM3UH+qKfU6KP4GuCAPZk4+hlfsMH9rmXNug+frmfg9WPqZRKv2SwAGACz3kla6dJ3OUktaNKC4Em/o1yzfma70g3d/QhQRlk+bVxqA2ZiOZ33tBMEeYfT8LqNGfZdVciEDw8YnAE7nyv8NJsBKSNS9hRAmgr5ggELu0jRWk8pnSoUZdh/nlNyJnuOtCasQU/VkFtrdGGDpBWxZrB1BpP6wovLcMNu7qbJ5R++mRvSNsQbqm6o7SR7+cdhAR5YFkctkyVKtmFNr+Zu62BQsZeC2uATvnKR2eUvm8ZZdCrYUyJH30lP0qxtVHsWskV+Sapw5GTvrnk3NEPE6o+Qt4xZTYpZraRVZwqfOuDVCOuM8YzIpYHIfZTb78ajEBML/a/pgQqrRdmhhc+GGcd9W8PIa1wcmDu0kjajM3A5HRPAVTnw7k/5+7ZlfEo4K4UUjXavG6/BTmoJOGUCXScBjLekNoRS8ymavvvLRh4REVR4LTRo5fKMFfKTJhA+/Z20q7PoPteiuiyk7iUE1df6AugDuVNiMrq+Cj1etyBKrCHF0nFv2P+u/RA8oXjU2i7UferlkzqLnFyQPG4dT67Iey6Ruipl3pkKKZVH/vcgdoLmSj+H++sSnJT+pX2CsHe6awJBuN8dYOudVeVaOtbzx9BYom/4j10ZLXSB7ObUqUBNfPZpnSCn08Gp0gZQgW8KYpj+T9qI9iAKjfylJg6IDeoB0R8x4Cxu0QUrlVc1IfcndriG45UAtlES3oKI6/o/xRDDESy17oaJHFLcgUAi75yP/37zs1at/30XxNQ8dPCUfdDVB2LonZDWx1mwbbDeSFOn0s89tlwATKndanpfVPQ9LwsV9e7pdb73pbkhlI/S2+o6NPEaKI68AvM6ZZ4WqZ4PdHvl7e/rdtyPmeKqOy1j5gCmCcPYTudffXPt03DqubZSt9UpRyUBw6H3saw/f0Edve2LIOxcODUZKDdOFJcvm+qGTnVAmHL4qWrPHsIP5qa0PqltZVGAVXqHA7sG0Ae7+cYoI1nkyz2BnsDcAIThbicUGNSFx06PqEQYMYhWP/wmqXLJ2L6X37Y13mpt4SV6C9SsaK0XlviAcqhRsdRfGDKKuDBfnX7sRrlMbPDppBM7UfgU3b2ALRQqvHC8HOzV1OqmC49YndmNpoi0WwyXnRyvM8E2McytKYK4VjH7Xtl+KrXxc4owv0nwNE2R63FqXE/UTfug1ENB6sJZlIFBiAOM+oUveLiC+Za9Ru0j5qm6zKG0f0QPuIViVQVi9cgBxMwq1lETHicoIKZQbJLBHCk+eDkFlDemV9VId1KPEwsTbv2K7rpaF1DaNHacCSpNB/d5NQOlcQt202m2RqWWzuZI/HGqNyLxP5y+PwLNlgLeXy1urZRLIXgH4OaCZBhoGfu0GIuK78DM4PmCcwxgQIcsDZ4bRMUk1PDs1XF30zAAiSYMR0R4S3RXVI0pVq4qQDOU4HroDY4s5NmvJn01Gs9F1peGODMZrPaTPGBqYeuehtvg+wXL6KGwGTiqOpZxUdUFIkbHCOZaGQzB+XU+FkuY8F22FqcGMzhF/KUwq+ycY6aNe9Iz8xmeFO5W6OjT57LvPHvTArzAFHodCVI31pdSYjGI23w3HFWGsofkz/7YzQrYZFeX+Z+rLIl0UqzHBhyYZniXX/EXS6/GVI1q8TJEICDNuZF0Dc16JPAOEFBVWTKXeI+q+GuVkZ1B2G1ac+eZD9Wu0ybGO0Dz/gHOdELdPyyL+BKbUQlaLueNy8YtDeDP8Du00DYni6bRVuWV/nh3s8yy9YqJr+eLJ/euIUX2S9EeVGoWqaD9XWA10jaKfUp/ufvoVvfeJ33/9UiSHc8zr3DOHsWhUOUjWH6C+rmuCMKOwPfrgQQhiUaL7tl2vkrSCiV4A7GQiXtLF2AV2X546POJTX43YGtvGKhlsSmWoUY6cqH1K77VWs0U7kEoAgoQX6gYJuyLZP7KyPF7S47iyxMxzxf5Ygn3UMMM2hf7EZWFO8OWeWm8QmGmo2Up2CY4q8E28M8lhSS46MhfOe6fEedAkR39Dh70yMaV5bRbTc7g0lg8Vq6P/q5bnW3pMcjNc4w48xdO2DclmuxsrZEqgeW9Kpjhvb9psjgyWTd2J/gFDYObl5alwm1SpSit1QDr/RAuU8tF433V+N5ptZFzPHQrSJX2Ttza07fzCWLReuWqXYUUcC0b/7NzRpqXkQKFDz6d0JXXm00uGpY5SY5QfgFsl6FHOfq5GQPfhjhqBB/yh1OeNvm8EqCefaAnCocMLPxjdmzOfWOTrvah7DgVNFT65U22LA7hfKcaoPMBpGOos3OylYS42HOTvs1HbXJqpCsr1cQWFmLJFCWYVQnB/tXZGUYb2N+8XiQdM7ZiKDezBbrXyfdyJlEJnDUxlQIOVIQfSaY9+i5mhyrcz6vdmmihYuiEDhx09X+vNj4dRyxdiRBFdRiWzsC7kOvLwbWFrbGjpm91dhhB5L+wSAyRtjK6WK8liVhHzAYCnx70h+217d9xqTJaV014UqYlYlCiKgiDaRMPIZHZwDVcznJMAt+kjOiIOfyUiHAv4qLOsVMgsSUzgbs2lLgkH5S79y8dHpkbid4pvhPiX+i5G5Zx+NLcnW9MqrGvKQKj6U7qPnrfWsyWdC+lTfUzTRGT+VcvGp13uIrKI7TCOrwSuEZ2MW7jZ9yrKbAAaUGMD8UTEkiBPfD3L3zCPYALQ6n1qqx/9mc6xQijsVKbIr+UBGEHBEqpxvcGIrLDqYuZJXAIkPZVSMQ/NNt+w/1Vpb7LmJrHdWS8ZhuWHbyNxD3vePrnGy6mshqAnu5yA2f5BoXow8mhgxd6n3IxpK9iBdey6mct7CNLxu/QPqZb22X89MeiTeMOlcBMkWlowlmfym+EN2qfZRW0tHwR8sBQ36qahYg3Guu3jTRhzID0F0wbCS+r4DavWhzsHk/72nWxTkFK7ujqD6jTOavavzBJdCtMBw6VEKeiPu7thyvxd15JC0z7wCtoE4hIyBGDFnu7VV8nmY8eOMO5ajcAoZxGJvOKEiFpJ7eH0cQeFnxGWP1SFO+j7AvtTI/0vA/tfAjt30jqpn1jNj6AuIa/MTMJ14vv5ENqxnClTFoHGsR201O6mRLCUxF7tdbPzAjM8shRdxjEjndoDYRM7UdkANlcsU1i34J491pMG85ole5QCeR6hrNBYMacp7JOT0OZv1Gha8EW1bohjoYwsrWCqlSbsdFVYzYOglqSSX2ATq86g8dtgBM7NGTqgfyCqkAC5RUhSsB97PWlYBF32/0geybEd5RLayfvIIYerqHn2CYP6P68CV10S9jn6N6Viu5+p+w1GyeeiIPIaXKV5OFMzt9U9EGvVh4E5se2NAGtORydpVPglmmUKoYnXR3rcasCS1OIn/rCjJraNGgTPGHhCn3fdQlm8a5aDaeaeERWTuHbv6/YLpUOnTqnQmVNNRIbt24EKLZi8gPBk2H685YiFLqZrKlxkjv8XXUUhdVRHY/+coFuw/5u9YwCYVav8ICC7VxHE5ILq9jruwcSvDA+ArAJrZjmVxn1jA3yPgAQ9I8xxSd37uyd/6JGR3yZgws8UN+ev9eNAHpQAp19csMVS8oxRzH03IgsCjjCurh3xCbFmaTEtGZkCdoir5va01Dkl6Px+0J2EZE5IQFWIhvaXQEqeVobQrB61dM0XOnWY1tfAkixnw47B4Rhpw35494oIk/ai2rwMFTwRoNdqGzBeEah0AxaR4irYpKz8egcjg8HQkq+XMq42mp3xc4EM09R004jYSNzIoeMNdyr/LOKML7sdddSku64W6uqCxPjsAfPuz03DLhoYeSLX8NRkDCh8LCkRyUx+U/zzo7Glzxxk0YzcEwqOjbiIRN2Bc/IjnmMoT7r9NsMH05a3r8MHxdy9o3nXNevBPFH0O8Cz0c9Ld9k4/G38x0TPearEgOq34AbhqxuXRc5QBsxLymY/F7qVEpzkkRWUS+5X1ltJ5l/e1CbPTV+1t6iXFLdw/UuZVdirUOG6IO2GhmQf3e+GWkp5pmqOMvAoPPhCI+8wGcYUoiwDmDfgGJIF6uJ7q3bMk4v4/eCKMqIUa6oi1Kql7vBnPI9uVAJAOfzhGFu5vQVXaidhw+/7jVg35NElYT1I91ETJ1NkMxYeiiNSeQrBxETjxX9u+xZEFT7cNq0UTCoE18Y48/Mn2eLVuBK5bW8TmBpPlNDrlkLXqR9sO7O6ezh516rUGJFOuVlx8bLBJGdYDYVtFgu87oECBIwXtCTJjndud8q3YbxZTxs0Aa0UzhA6kzJ8gQJDM4ifAfgtWk29CdcQZTkx17TXMEI3zAc89zZQK9dWO5JPx3W93EhBs/x7q4+rV53ZlTLhmHLTulKbFtmsIWfyBZML7g5WRgqrflrRTaHbtopJ1SvP7Z81vIx5+X1aJx6HLwOM2emAs0KhNvQF10M1fADHkAaoirq5CdjKWMPlCAsOM/vYPkno3ryVGGxenEDfaGnUoxlUmJBPqIoFttuviMoYgyw78ON/17DqepaQAp+whmyuIMh1xJZzllfJmIevWPT6eycH/g+aJG5hvmM0hBZHxQAIpDj/T9o7w0ON0zXH7N/LWULwYUWnmYoyA8q36KUg4ApXOyKVgiEUTtVtIZjIS6ndGDnJQyyXYvpW7X/2njPJuLWY0UojI8eug8KrlQ0bNPX72Jg2sV3ZCZ7NVI2Xz4zKsyultrflO1zR9blIL23ZNHvD0oS2r+S+FQOjEmgKgSGahkAbB42bc3cD3K4Ku5gV/J8uXoNMls5+heImXBECeMYhDRl+S3tdQuWuegUvB+Ifv2ClmgKwWcTO5+FDIsmS1mGo5V42u8BeSxsuLygQ85tvDZwSezXWcdNzn3fS1splYq+mOBwQra+962gltQBW/rDlRXMVZtaRBhFukpZW9b0dIK+l15MOhpHThloOO4HWxbOzIQXLBi6X7jIlknk2Hv9g7zTB41TMTljW7cZiqbgcLZX9wbrb/n56zY3mnZY7kx88RT5Cp5KETr2WTUoanXVE9+YmX8eZ5INrTRg2aMF1LtADlnWtF/T2EcbsO6st2LMF95HM/tJE6/sltTBIIhin+UGGzHTuoVZXOh5KssIzp1SMpbO/avQQcakzTWatgWN32JxmTOj8UD9XghsMyH4akObbbxMnykf1FlBAdTmRq42sqgxDRR37GXb6hKiG2MHLmhvAqXrpUG3pGkEohKIFt6S+putss80+xles7g3HyC1RAUc4FHPAQ9RBVRon/8MJTxv5aibMc28j2+KwdNcm5Qgmxtl5UtKEBxfaQ4lOewGgP3dGajv5C0Ez1CHCu7/hNdXHid0ILh0Eo7MQtbA8bijzrgrXBTrdJDVW6Tz1xYZurDdxj5/8AT4iK8dxLT6F0PYe+0OlwaeWKJGKzjXuES+7kdXxFCL0jUr1kAxifyXqMM07UJqt9pYsZzSelZ+QeX1dIMvAOYqy/nXflpPUL/VTYBzhZDGyAbxSn50hXqltLalm0mu+LALvMikuBn4f3YcwiI+fqAgORNCe1NNjgUGVU1tVLaPgUbatDfT2PApMh+1ao/04pnFjFWu37uubgwlv3bXlhaNH3x2BKdH6gjYxBbDgeQDPDK8mi1mzuBRH5bBcvZRgn2MRXKUlId+2XxZ6PLDnywDZzAMpw2y7yeyHNVpoB3WV7EZh/YfK3aAfbArJFkxYnwB0XnN7SJnheGZ3czh/zbl7Scb0PtaL3GH8SyO5gauCD8UVbXkd9Xl8SbOfrQe0v6vhxiA5cOGswekznBW8ZZEUoDuIuEPUzhJt4W2A5w6PDMzQavY4FClVvmic3MI7qyv/cMbHYzDJ+LZqOJCCUffvcqi8nQQ3p7MfAoZQnyl8udMQFNvQgfO4wjE94jp0U1BLZXSItEyqWhIsY9EBgpSLrGyhPPcSRbsCRKXqBUa6dDpC3qC5D7VDKv9wDxQ/LmsadjmHKHTBHDjk22nTyv+WGfduE+mKdZMpJKglBQbqsOvj+/BgcbVHON/cv4b/jS2t0WojMTuGOnrOXMg9EHsHPJ+Ilc6AUh/611uygxKK7hQjtaJVIYZqWskbwDCcBf4jgqU8zlLAO5EFmcLaj2JV4YA+rMQ91U6HMROBdeUwi2BxLhASLvYJ1XRmQVWFS2XARagakwSZrety6cONY1pyeh4Qqn+p54JXqApsSDm4pBG4f+P4VoXIFGfbp4EjycScj4vqQi6lPpxlI2eU1+84UB7bS/EIIQpiP1v2+NatkM7QgjaB8E0YYYj20pfuzJ8seTBjzItLv6nZDjzszOKAhuSiDjKL8mUi9JFQzud2fYzD/xWn/vtJYuSrfdsRPsC6cLA7LY7rYPbA9O/xuImnEzuNSM5JcoZT1ndRxK5I+ToKdGKOdwLbcZvZKn7Mdwyw6GtWrnYM6kkapJjqbwazzQrxoG3/jdC6lQCW9hrFSo3fc77tvvMWd0Xc7TrVmalK2ThGv8o5OGGg0RXXKALOJ1vtqMcyfl2ZHjl8fxl7QAC20aQIipCnBhlNuYM1KBx23FU8aMO4SfoHe+bl1ujbJF5UqzHhRTxBj7DO6jYZOLswedcwaxYY7xXAkHReliStEDpjmHctWhZfmkmSViSUVFKaFOwjE5Zv1KIpF+IoWDKS0YTgAJVVtkJU94uPtYtGYruJTU7Ak7rVO3gX4MDS5IY565ijtY5blCF/phSpoIMZTeyrJx2g53O9Y+wdMVEFtb1HWB7opFvMALJE5V5pAw+zzFGhY9TvW7+2BxuQXPy44UBeSMrHu0XR9a8UbOu1P01VKwPu6K5h/iBVlBAHrOa2VcRIIXjn0z8AbYdS/DuBT4UPySTVe0SLXDAy4Vz8B15bNkJVafFnmWDMXWxGWh5VviGn9qwUyfUUHZ0totRc7fRovPfA8Gagrn1nq0cSPwfsVeG+XdOKr0fKZREjlu4torFKuN4MJshoqDAU1dvAolWEY8qHYPLz7eHvw3d4cl+syhFEW6wuUw8Ae1nkHelV8Wh/uBgtQmqMY7nYN7J6GwJUszEPSlO4e7wsTBxY8+kqxcTLEDYgo+Y1rTeVSHD+X6Ba5FlQqTlrwxFPPQImwYcniyrNuaYlxCW1V9hhZlsCIGQQrfK2L7Ruib0OfNkPg/GRp4594wOiSO6YnVi7Cxqf6KHEDHP3BZ5OFbK+WHiAM+sv+WgwMbJUEnAyacDvfLyOoYoEYt/ddbcrq5aHp3vNN5jAfSysGgQoW62IqOIySC8PzaAbq35bRPl8jYipARl9iaR7AUPeDFSAt/shsx1+Eu485shS5frn+XUAD/LDHRJBOW9ar8gMfaCmVhyClSqdTzboKAfONvBvU9Cu6fOp4R7ZvBERFiHLZU0/olX9OFGV0JWBx0bi1SkrECaBtDKgECvkdzKQYhjkdwuRs7ahnWvmrfQj93OKdmQkE7kqsRJa5fqMICvr0GvnbiBJOEq0gz8yNwDi1PZM8Zsa6JnFQyF+5clqQ6HeSA5ENNZI/HGJBTkpmn6QGXr5gPEbE29d8uwSzOFb7mKFu2h7wmcF+0OfIbs3ngCuEixNnq8FAwMEPhZLgSCSarRZHmnZ+9mNZ4rdZoJqQcRkrG9haCvIFQS/zg1ojSs+m06BuXq/07VNyKSVSdnTN8EFxUC+mpU61W+USr+I9/YgNYx+de8CKghdiqnOMyNwAvE2LWDjdpZ67AEHww+fiMp3sY8gCvzcjEZqD6XVd4HpaaTUio9XxH7naiRUQhJh2mlOAlSKG4OqozEs+eMq3KDk3pr4ajDjkV0YUfZHb9xcs8JiqvYZvIyGQUMnRQUZxVBeDExsB/T4kfm7oJg4158Xflrmo9Gmc3Bn+smtd9mfoo7at3vTs+ncQHrbKxKvkohjo/phFVGO6qPdjfO49eBKUYPxM37JzI3oLLyqDNK9VtAyrddeRmoC+3NjGAvebhY+1WWPG2crGtj7pMz5uUR9zwSEyDHnRKQyDCUHG5FAJ/gH7zOqOaf0Kw2/g/IBsR5TbbmBckibwkPqEhMJoiPuY01jLoa99eH2oJ8OvvU/G89uyoCLkWdv6cLapWW+jjNcjlSgR2nV8KlM1XlFWUhP5jS4gBGfctqrHl7BXrvsrqS1WQh2Nbsez16ZkfmyjQTe64dP4olw+LeSUpxNL0doiYqy1c3cy2YpfVVnamD27tuZxEj6CyymYsBe8EZPYvdkgeUIuw/hhmK05b2yR7BYjI8Km8FYSxbKbqH9Wmm1Kzhi2sCNuAE8zMUu6WlHWpUTC0PajhQwrGluW3gytdqgAoUAprP3vi6TSQtsEUyBHEpntNWm219I0X/AmPHMQbE3autQGwRPrxoT1LCLSvSBBUOUxBJNoiBwil9JacUrPMLaXMvYAs5eMTM4HsAK9I0XFhGtPedXruhB586pZ3w2IVjysxQICtKjSY8g5i4iQ/mcE5Q5lvTt12txErvvUkckv3vMI5DG14b0fiQ7I1YJ3LcW7jXBuruZJR2CGDrR+HjhB69EcqGg0FIQ2egfLbd/XLLoaWTm+InUDI+nPmoqIXe+TZZLLqALTl51ktMO3cQfWnwER3wRG55FijzmiiQu4uSuqYzQMEadtLsxkq7A3NimaQZbhVad84LOd6qdzBE/VtCy8owOYDvj/PQcVpMfSxkBRRhnBsbyZMv7bnp1kqttnmYJmG8RGybyBcd0A7xxfmcROQzM96Rz/ZteKlX4riS7PdAlEJyrl/7YsUtsRAEFZwLHUv9RGgxWQduBaYoD4aKg1VZ+o2s843HO4Js/quHfMfitSP3lHrLFuM5m4eCvoPVIsW3UIRz8zeZUtgKRj/ns55kD6IHKI8/VU9IKdMl6i3PhSvxN6kK2K3EXpXBehsQV0knZpsly8EEClW9YNsPx0ZtCPThDy0b5laOleyeTCpSt2+TZd1tZ86qxRsGHLnuOkQmluEOc0U9m5rqPGm95rviLsZsaG7qccua72r4xrSj73jSwVCZGXP3UPfPkTvjTxOVBEjidFzqL74m9o7WQgZEpDIfspD53OZHfxlEEOpvifWRB8fLTgq6vM1hcumTOeERwKQwt73B+c2fT3OVQ3/kvsFSLBA8VAJUZBp/oaAGVzh44nakDJk5u9TWEPEGSPlQf9gIT1aXDiYoUjiCoWVa0MyS3T/8rn7FsT0Jg+v4GbF6xuXi0dBWzQqDdIaIeAVblgJ43ah2poN0A+kj56+pSwW0V1rtR1zQdcPaNgIDiEVYfIiKm76R/8KG4ue70k9v5T0Dbetw7nW1FS0S4M2+0cYQS1A7d96o8//qy+9I/GlWpqAfRMmGT7GSOTMpouN6NE1N88km8Jqw/x2WUi1qMlOCnCEdiCCvBiaNAVtst65JcQsDOsInUFHcinLywukl/dsBJG2KW7j5cDbDXccNYIrq78styZWy857lcSdk7/ptD5DfQ2D1WFNP/unto+k6l4y2WmUQruqCwZF7F7I/mxPbw5v3C0+Nf/kmBbmUJLUXLxe1WBlijL7OyO/bDKGT9CD7QsIwgeUQhAqAfMt17z1vlA/288PMCdQedSs43BTG22apra7k9UfNkIrJQJ/Zd8r3hfEC9aOZ4DrNJkhSRz/WPCW3lYhVGJRFVfEkMs3YOtlD2XanFXpThWcYiXNLVC8vNVp4ybrf7WGeHuJaW8K8QbM4/Onq8dk9jHKn6iYZ2tViWlUavGu7aw+TpXYQ0kDt1trLjRFazaaO11T4Hv2g1CVRiKABQ35xxHMq8fZaVm9h+9mdzN4A8K720TIt7UM6x/3XB6b7pEbIspm+wY9vr0GT3sD6q5vbyxdSIZFAJCfwNkWdp76vPWq/tB3+2K6uNZllOyzYC7EjgWBif0YUxbFnx8dmsV96jofgKw1Jl32UqGiVoUwx/aNzpAKGBTlUp3oJyvC73dWfcLMkmyezylpCKJKfGCpoNNcQsXdlQLLSqIv5fIHTfuxB6CUVVa+0STaNQuxIhlDEh1RXCm8CqivQU2tJTKq1GhQzNlMK+2aY5fVII3Q79A6cQ9zUnLdn9x0AFUF+eTROIgeViQW4Lt6xgJpk4QUkVg9gIjylLS0w3JyPehiJ9cuma2xxIhh8nL21Xzn1XApWsxG9M8tXRbZW9DFOVaiFRLqLBD/mSWgpw+GHeBGZT4oVgKiOOLLJKlLDRHd55M5CoBeKNBXaXDP/QhZdh1SnE6stVEeOpjLb9qYtElH8B6kUGuLirgMZBZTYdpwqArd75i787kewbUEIEghX6deBAferoA7KBzgf4BBE2MFDRKiq+O9vJbmYMgxfqBOR1HZlRpUrfQWAAATQE/Sn75sPiNLAIo6162giqm2BkJzE5tXOxzmFTSdSqllURo4UlaWuN+hjbrE60ijs1Zzw4oXxGvzO8Zfr2ERBfX1HUHJjluu8NKa0Bpe3urrNw89iTpF2Wwf0Y2wlnmenwpaaTkQtKHkpv7KhIGmc4bCf9nLxtCN78dtbTQANe/s/GiGL0jwMFjsiC0fpodsye3Wz4IWXcVjC2M90ziSddeKekoAm2OHyAUUJ4X0s96W0Ohp/rVqwirk/GpqGyOB9S+o5MDkJP8cygNUhRG23WlTC5DYWoVWe7f45fWiG3kxy9FloLpHMy9/wNq3n2LY80ZGWtBin2jXG9Wj2VRVj5/tgjwGB2TYj7YJSYogHpdak/2LR0HwFxE/yShCn8YFOcXgHRzn0QAgdXh66tAx0Cq3UqGfd2Tp7wlQOsLzwOwlPWgMUYSbylYXXQGYw0QOs2b+iECLxM9twaTnlC5YVHeXFdCZeDiGbg9dPo2F1jySUU7EGw2NujcM3WXOU/ZSvJeZ2XGF3s1irgLT3zRxd9HgD2mnXTKlU8VMmNe3cMqerJdrjF/Q6xZLjUrrakBppKVRngRsqiM/5HkHKJeoCJTbHikYG+/lOIsq/Y3e1vXxosOLFtnKwwB6kGGQRyhlG5JukJ9FyGPutZ2iv8ePmbzxwqZUT2JeAar7U+nvWu2yOIzWZKvvrQZtEEJFXKbxZwiXY9uQsd1JtRJu3p8mGcdXXKSA/bQUL2mY9E5Tef28g3XxlbHZK4zgPIEkZ8+MX54EOnu9CmYImtDzJJ0u/Ro1c14VzOJ351dkzX/pIoFYfXzGzQogHjqrDdwiMnGflEXrZB0Zf1sN45iwo6tY77GanM/uRPfFP22CwpS6JSOLGnPGVDNXaIo6cfcYHmnDSo3xm5F7dIX2mD6qbxmFPtZWtcB8a/T+GfJ79U6hcH70f0HFycTWqQhHlfV8RQtasl03vzn2rN2PUNE2X4kSLZJ+wTQRy07cgYF8/W9Wh/+kasNaF4IwExb36rnGgQAlXdAyeWeS8gT0sgmCsr6fjcUwRO2yEHlP/PHuAoVEMiDkaTIRtPwJDJ09FlqanLn8FAtsSfCyiZqvJdOecaSSJZR++IZobLIcKKpkTjYrWGxfuR+e8m3g8veYgmmjqgtq2IExqX6IYAck0H7EhYG372Dm83Y21Ic4ipn6rO0w5NKMTRrqjy9Z3irrp87oOUmQ8J4chPUowuKH8b6jT6xOoH8YNGJ8fx4lsWzkQQXPuveaRp613gJaYWg82vOLaJ4V0nnYmiJokHmge4ed0C1rgkeGyjEyJiJTa7mUlej75vOBLFgcCtoyfW4K+N9p7i40/Uv6HJl6c4RkpEiBuv8sjrh4uUHkBR89P22mEfJU1aDyLcNw35i+eP2VbZm0nogcu5Wip2ijlo3YBCk2LXUxJCUz5FRzRfxua+DzJvIMUfHDEqsZ2IvXegHZROL+6RHUDFgSCWFBiOX7aes/nV5XuePKNWsjcRBJag4FzDxEaYrXo9LauxB9m0EuZ+Xf4z5eEjO0XR+Jfdu64lV4ZfdFIcQKMGOiUHNLpVF/o0MgT8X9VrSDGNk8vBC6/4XHX59EfTH/T25SsnIMo5fftTtQzkupYL3srUqduy7X4V20f7z9qo61gpsGt2HgT+DaqBwo+E4AsiBgtsk7AGyEdz4bkZ9Wq4oj3z9w3OIaZqS9e0s9WdQ/0HayTzsZweHUE/PYoIQjFMFHwikfXH+tkA9gQd/K64taDlz9LYN7R3kuMcPyJkdQDWZ+Hat8BCXvFaCbah4Sz8HlbExqdxK0/06nyZepzpRkJCv1CTeHrYiS+vA8HfxkKmoD85zp4kqcREPEPmMIxt8GSTuSc+F5cO92jl98aJXsAIbE6w+pkShtVV9mSO+yxEwTGceUqS9d9HYn+SKb1JUhSF0tbGQ/JePlZ1/esaLUAc/yXhivLTV27++NUtf0y7vlRdyC/ZK7HtDznMIX5o0OxbjOTZ9fprJE369TzSOdxEzFtHEv5Shuh/pZXnKuX05rL8r2bdQg9sPZK9ppTXBqvnLvEucUgePnmL1XkVntTzm1/+/atKlpoXTdUe4IgSQpjQRvLBpRvBsAWvMfmVx3Lj0/naFFva4+n93NTxWaxVrp6qV00NAejIv5FL62gsrKpvdqakf7JJX4qTxpMfETLSOEWIjcMwNgVlplk06gd650buMfj7qo/XJTv26WkKYgS1S7qLVc24HebFPN8jBdRVAi98nh8aq9yj3+5U1SeedxplrvoR3iv8Ar24kGKvAa1fJak1STqyUuFPRULSxOHkChSjQbUrzIoNNxDxv71kSs15yWH0Kk6PX87xLaxeyuYu9TJ8axz53aSFOCEfSgOWLvoLbA85NT2DDsLOhrYqRtIIDec82Q5IRcp09Lxway7kOHIzUzgmLJ8c63m6i4PQzxdbFXUa0KfGN5HdRZP0M0x5wy0rjRFUw0OPOU4XXSfBqW80CbDBp02Sh/cxgcbXdC72j9GTcZeqHxLqoPHkLInivtdoVV5Sm+LjkEPTOYu9mBYfdJr2vOziVxbQCeY1UQHNmsDKnkxg3kgI21MDSxkyj0NWud6Arr9ckf9q1LOTSB5L5U42RrVMmLMlOgGa8KG7SCNw26cH/74adpFcaAtTKXw8ZeVGJHfbu2ijnAj8BYhdmMHzSqQsOPjqAF+GW3WEq2hSuXvySV9Py1vO6jeVWKiHEWLKVXKbJCKVyJ+czHSPNn+c6HE/kmVGqhV4+aQKTshL+Ai1YVP3nkJq/RTsOb43s7WNZLKqDNFMiNLYfu0nq4hhRUGnfwoxaKNcnfX2P65+0n9c30lBlG4SF6cdYaLJgpHHYryvGsyfqGrilq7BaXmZ8JK9zkLJY5Dumty8vISiCxUEc7k=;" parent="1" vertex="1">
                    <mxGeometry x="220" width="420" height="210" as="geometry"/>
                </mxCell>
                <mxCell id="tgNo1-seNx9lQ3xTW1xl-14" value="" style="endArrow=classic;html=1;rounded=0;exitX=0.5;exitY=0;exitDx=0;exitDy=0;" parent="1" source="tgNo1-seNx9lQ3xTW1xl-8" target="tgNo1-seNx9lQ3xTW1xl-6" edge="1">
                    <mxGeometry width="50" height="50" relative="1" as="geometry">
                        <mxPoint x="170" y="270" as="sourcePoint"/>
                        <mxPoint x="70" y="220" as="targetPoint"/>
                        <Array as="points">
                            <mxPoint x="70" y="250"/>
                        </Array>
                    </mxGeometry>
                </mxCell>
            </root>
        </mxGraphModel>
    </diagram>
</mxfile>